<svg width="17" height="16" viewBox="0 0 17 16" fill="none" xmlns="http://www.w3.org/2000/svg">
<g clip-path="url(#clip0_1_981)">
<path d="M2.6431 1.99998C3.49752 1.19459 4.62853 0.747948 5.80269 0.752228C6.97686 0.756508 8.10458 1.21139 8.9531 2.02298C9.46359 1.5372 10.0792 1.17567 10.7522 0.966509C11.4251 0.757345 12.1372 0.706178 12.8331 0.816984H12.8351C13.7618 0.968682 14.6203 1.39931 15.296 2.05144C15.9718 2.70357 16.4326 3.54621 16.6171 4.46698V4.46998C16.7503 5.14483 16.7285 5.8411 16.5534 6.50629C16.3782 7.17148 16.0543 7.78822 15.6061 8.30999L10.3031 14.629C10.0535 14.9253 9.71337 15.1313 9.33512 15.2152C8.95687 15.299 8.56154 15.2561 8.2101 15.093C7.97709 14.9846 7.77059 14.8266 7.6051 14.63L2.3011 8.30898C1.53737 7.41457 1.14682 6.26072 1.2103 5.08631C1.27377 3.9119 1.78642 2.80687 2.6421 1.99998H2.6431ZM5.8011 2.25198C5.21066 2.24898 4.63177 2.41566 4.13332 2.73217C3.63487 3.04869 3.23783 3.50172 2.98943 4.03739C2.74104 4.57305 2.65174 5.1688 2.73217 5.75375C2.81259 6.3387 3.05936 6.88824 3.4431 7.33698L3.4481 7.34198L8.7531 13.664C8.79036 13.7078 8.84089 13.7382 8.89702 13.7507C8.95316 13.7631 9.01182 13.7569 9.0641 13.733C9.09878 13.7168 9.1295 13.6933 9.1541 13.664L14.4661 7.33398C14.767 6.98464 14.9845 6.5715 15.1023 6.12576C15.2201 5.68003 15.2351 5.21336 15.1461 4.76098C15.0214 4.13991 14.7105 3.57154 14.2548 3.13154C13.7991 2.69154 13.2202 2.40079 12.5951 2.29798C12.1263 2.22344 11.6466 2.25831 11.1935 2.39986C10.7404 2.54141 10.3261 2.78582 9.9831 3.11398L9.9761 3.12098C9.69834 3.37944 9.33301 3.52312 8.9536 3.52312C8.57419 3.52312 8.20886 3.37944 7.9311 3.12098L7.9221 3.11298C7.35185 2.56434 6.59242 2.25605 5.8011 2.25198V2.25198Z" fill="white" fill-opacity="0.7"/>
</g>
<defs>
<clipPath id="clip0_1_981">
<rect width="16" height="16" fill="white" transform="translate(0.953125)"/>
</clipPath>
</defs>
</svg>
