<svg width="32" height="32" viewBox="0 0 32 32" fill="none" xmlns="http://www.w3.org/2000/svg">
<path d="M6.94663 2.09328C8.48525 1.60368 10.1272 1.53656 11.7006 1.89896C13.2741 2.26136 14.7212 3.03995 15.8906 4.15328C15.9209 4.18027 15.9601 4.19518 16.0006 4.19518C16.0412 4.19518 16.0803 4.18027 16.1106 4.15328C17.1122 3.19756 18.321 2.48612 19.6428 2.07445C20.9645 1.66277 22.3635 1.56198 23.7306 1.77995L23.736 1.78128C25.5561 2.07909 27.2421 2.92472 28.5692 4.20541C29.8964 5.48609 30.8015 7.14095 31.164 8.94928V8.95328C31.4254 10.2785 31.3824 11.6457 31.0383 12.9519C30.6941 14.258 30.0578 15.469 29.1773 16.4933L18.572 29.1333C18.2568 29.5086 17.8633 29.8105 17.4191 30.0175C16.9749 30.2246 16.4907 30.3319 16.0006 30.3319C15.5105 30.3319 15.0264 30.2246 14.5821 30.0175C14.1379 29.8105 13.7444 29.5086 13.4293 29.1333L2.82663 16.4933C1.94473 15.4695 1.30722 14.2585 0.962343 12.952C0.617466 11.6455 0.574248 10.2776 0.835961 8.95195C1.14569 7.36573 1.8764 5.89203 2.95151 4.68532C4.02662 3.4786 5.40654 2.58331 6.94663 2.09328V2.09328ZM11.1066 4.49728C10.2771 4.30562 9.41745 4.28294 8.57895 4.43058C7.74046 4.57823 6.94027 4.89317 6.22608 5.35665C5.51189 5.82012 4.89833 6.42264 4.42195 7.12829C3.94558 7.83394 3.61615 8.62827 3.45329 9.46395L3.45196 9.46661C3.26798 10.397 3.2983 11.3571 3.54065 12.274C3.78299 13.1909 4.23098 14.0406 4.85063 14.7586L4.86263 14.7719L15.4733 27.4186C15.5381 27.495 15.6188 27.5564 15.7098 27.5985C15.8007 27.6407 15.8997 27.6625 16 27.6625C16.1002 27.6625 16.1992 27.6407 16.2902 27.5985C16.3811 27.5564 16.4618 27.495 16.5266 27.4186L27.1506 14.7586C27.7692 14.041 28.2165 13.1922 28.4588 12.2764C28.7011 11.3605 28.732 10.4015 28.5493 9.47195C28.2931 8.19608 27.6543 7.02853 26.7179 6.12481C25.7816 5.22109 24.5921 4.62407 23.308 4.41328C22.3453 4.25982 21.3601 4.33114 20.4296 4.62166C19.4991 4.91218 18.6483 5.41402 17.944 6.08795L17.9333 6.09861C17.4089 6.58893 16.7179 6.8617 16 6.8617C15.2821 6.8617 14.591 6.58893 14.0666 6.09861L14.0573 6.08928C13.234 5.30335 12.2143 4.75346 11.1053 4.49728H11.1066Z" fill="white" fill-opacity="0.7"/>
</svg>
