<svg width="24" height="25" viewBox="0 0 24 25" fill="none" xmlns="http://www.w3.org/2000/svg">
<rect y="0.59375" width="24" height="24" rx="2" fill="url(#paint0_linear_1_1310)" fill-opacity="0.7"/>
<g clip-path="url(#clip0_1_1310)">
<path d="M17.793 9.75878C17.6634 9.11423 17.3404 8.52449 16.8672 8.06812C16.3939 7.61175 15.7929 7.31042 15.144 7.20428C14.6565 7.12657 14.1577 7.16263 13.6864 7.30965C13.2152 7.45667 12.7843 7.71066 12.4275 8.05178C12.3114 8.15979 12.1586 8.21984 12 8.21984C11.8414 8.21984 11.6887 8.15979 11.5725 8.05178C10.9801 7.47876 10.1896 7.15608 9.36544 7.15082C8.54125 7.14556 7.74673 7.45812 7.14704 8.02353C6.54735 8.58894 6.18861 9.36371 6.1454 10.1868C6.10219 11.0099 6.37783 11.8179 6.91503 12.443L11.352 17.7305C11.4314 17.825 11.5306 17.901 11.6424 17.9531C11.7543 18.0052 11.8762 18.0322 11.9997 18.0322C12.1231 18.0322 12.245 18.0052 12.3569 17.9531C12.4687 17.901 12.5679 17.825 12.6473 17.7305L17.0843 12.443C17.398 12.0788 17.6249 11.6481 17.7477 11.1833C17.8705 10.7185 17.886 10.2319 17.793 9.76028V9.75878Z" fill="white"/>
</g>
<defs>
<linearGradient id="paint0_linear_1_1310" x1="0" y1="0.59375" x2="24" y2="24.5938" gradientUnits="userSpaceOnUse">
<stop stop-color="#450AF5"/>
<stop offset="1" stop-color="#C4EFD9"/>
</linearGradient>
<clipPath id="clip0_1_1310">
<rect width="12" height="12" fill="white" transform="translate(6 6.59375)"/>
</clipPath>
</defs>
</svg>
