<svg width="22" height="22" viewBox="0 0 22 22" fill="none" xmlns="http://www.w3.org/2000/svg">
<path d="M7.37274 2.56026C7.20089 2.73216 7.10436 2.96527 7.10436 3.20834C7.10436 3.45141 7.20089 3.68452 7.37274 3.85642L14.5163 11L7.37274 18.1436C7.28519 18.2282 7.21536 18.3293 7.16732 18.4411C7.11928 18.553 7.09399 18.6733 7.09293 18.795C7.09187 18.9167 7.11507 19.0374 7.16116 19.15C7.20725 19.2627 7.27531 19.3651 7.36138 19.4511C7.44745 19.5372 7.5498 19.6053 7.66245 19.6513C7.77511 19.6974 7.89581 19.7206 8.01753 19.7196C8.13924 19.7185 8.25953 19.6932 8.37136 19.6452C8.4832 19.5971 8.58435 19.5273 8.66891 19.4398L17.1087 11L8.66891 2.56026C8.49701 2.38841 8.26389 2.29187 8.02083 2.29187C7.77776 2.29187 7.54464 2.38841 7.37274 2.56026V2.56026Z" fill="white"/>
</svg>
