<svg width="16" height="16" viewBox="0 0 16 16" fill="none" xmlns="http://www.w3.org/2000/svg">
<path d="M4.7 2.40395L13.6933 7.59595C13.7642 7.63693 13.8231 7.69583 13.864 7.76674C13.9049 7.83766 13.9264 7.91808 13.9264 7.99995C13.9264 8.08182 13.9049 8.16225 13.864 8.23316C13.8231 8.30407 13.7642 8.36297 13.6933 8.40395L4.7 13.596C4.62907 13.6369 4.54861 13.6585 4.4667 13.6585C4.3848 13.6585 4.30433 13.6369 4.2334 13.596C4.16246 13.555 4.10354 13.4962 4.06258 13.4252C4.02161 13.3543 4.00003 13.2739 4 13.192V2.80795C4.00003 2.72605 4.02161 2.64559 4.06258 2.57467C4.10354 2.50375 4.16246 2.44486 4.2334 2.40392C4.30433 2.36297 4.3848 2.34142 4.4667 2.34143C4.54861 2.34144 4.62907 2.363 4.7 2.40395V2.40395Z" fill="white"/>
</svg>
