<svg width="28" height="28" viewBox="0 0 28 28" fill="none" xmlns="http://www.w3.org/2000/svg">
<path d="M8.225 4.20695L23.9633 13.2929C24.0874 13.3647 24.1903 13.4677 24.2619 13.5918C24.3335 13.7159 24.3712 13.8567 24.3712 13.9999C24.3712 14.1432 24.3335 14.284 24.2619 14.4081C24.1903 14.5322 24.0874 14.6352 23.9633 14.7069L8.225 23.7929C8.10087 23.8646 7.96006 23.9023 7.81673 23.9024C7.6734 23.9024 7.53258 23.8647 7.40844 23.793C7.2843 23.7214 7.1812 23.6183 7.10951 23.4942C7.03781 23.3701 7.00004 23.2293 7 23.0859V4.91395C7.00004 4.77061 7.03781 4.62982 7.10951 4.5057C7.1812 4.38159 7.2843 4.27853 7.40844 4.20688C7.53258 4.13524 7.6734 4.09752 7.81673 4.09753C7.96006 4.09755 8.10087 4.13528 8.225 4.20695V4.20695Z" fill="black"/>
</svg>
