<svg width="22" height="22" viewBox="0 0 22 22" fill="none" xmlns="http://www.w3.org/2000/svg">
<g clip-path="url(#clip0_1_1266)">
<path d="M14.6273 2.56026C14.7991 2.73216 14.8957 2.96527 14.8957 3.20834C14.8957 3.45141 14.7991 3.68452 14.6273 3.85642L7.48369 11L14.6273 18.1436C14.7148 18.2282 14.7847 18.3293 14.8327 18.4411C14.8807 18.553 14.906 18.6733 14.9071 18.795C14.9081 18.9167 14.885 19.0374 14.8389 19.15C14.7928 19.2627 14.7247 19.3651 14.6386 19.4511C14.5526 19.5372 14.4502 19.6053 14.3376 19.6513C14.2249 19.6974 14.1042 19.7206 13.9825 19.7196C13.8608 19.7185 13.7405 19.6932 13.6287 19.6452C13.5168 19.5971 13.4157 19.5273 13.3311 19.4398L4.89136 11L13.3311 2.56026C13.503 2.38841 13.7361 2.29187 13.9792 2.29187C14.2223 2.29187 14.4554 2.38841 14.6273 2.56026V2.56026Z" fill="white"/>
</g>
<defs>
<clipPath id="clip0_1_1266">
<rect width="22" height="22" fill="white"/>
</clipPath>
</defs>
</svg>
